<svg width="256" height="256" viewBox="0 0 256 256" xmlns="http://www.w3.org/2000/svg">
  <rect width="256" height="256" rx="50" fill="#E0F7FA"/>
  <path d="M128 36C74.98 36 30 80.98 30 134C30 187.02 74.98 232 128 232C181.02 232 226 187.02 226 134C226 80.98 181.02 36 128 36ZM119.3 103H135.4C137.27 103 138.8 104.54 138.8 106.4V106.6C138.8 108.46 137.27 110 135.4 110H119.3C117.43 110 115.9 108.46 115.9 106.6V106.4C115.9 104.54 117.43 103 119.3 103ZM142.4 134H113.8C113.36 134 113 133.64 113 133.2V125.8C113 125.36 113.36 125 113.8 125H142.4C142.84 125 143.2 125.36 143.2 125.8V133.2C143.2 133.64 142.84 134 142.4 134ZM113.8 142H142.4C142.84 142 143.2 142.36 143.2 142.8V150.2C143.2 150.64 142.84 151 142.4 151H113.8C113.36 151 113 150.64 113 150.2V142.8C113 142.36 113.36 142 113.8 142ZM113.8 159H142.4C142.84 159 143.2 159.36 143.2 159.8V167.2C143.2 167.64 142.84 168 142.4 168H113.8C113.36 168 113 167.64 113 167.2V159.8C113 159.36 113.36 159 113.8 159Z" fill="#00796B"/>
  <path d="M168 184C175.18 184 181 178.18 181 171C181 163.82 175.18 158 168 158C160.82 158 155 163.82 155 171C155 178.18 160.82 184 168 184ZM168 162C172.97 162 177 166.03 177 171C177 175.97 172.97 180 168 180C163.03 180 159 175.97 159 171C159 166.03 163.03 162 168 162ZM155 141.6V136.4H155.8V130H155.2V126H155.8V121H155.2V117H155.8V114H155.2V111H168.6V141.6H155ZM163 136.6V130H159.4V136.6H163ZM163 128H159.4V122.6H163V128ZM168.6 122.6H172.4V128H168.6V122.6ZM172.4 130H168.6V136.6H172.4V130ZM178.6 136.6V130H175.8V136.6H178.6ZM178.6 128H175.8V122.6H178.6V128ZM174 122.6H170.2V128H174V122.6Z" fill="#00796B"/>
</svg>
